# xmcd CD database file
#
# Track frame offsets:
#	150
#	50735
#	83325
#	104830
#	129400
#	180485
#
# Disc length: 2744 seconds
#
# Revision: 3
# Processed by: cddbd v1.5.1PL0 Copyright (c) Steve Scherf et al.
# Submitted via: CDex 1.51
#
DISCID=480ab606
DTITLE=Eric Dolphy - Last Date
DYEAR=1964
DGENRE=Jazz
TTITLE0=Epistrophy
TTITLE1=South Street Exit
TTITLE2=The Madrig Speaks, The Panther Walks
TTITLE3=Hypochristmutreefuzz
TTITLE4=You Don't Know What Love Is
TTITLE5=Miss Ann
EXTD=YEAR: 1964
EXTT0=
EXTT1=
EXTT2=
EXTT3=
EXTT4=
EXTT5=
PLAYORDER=
